<svg id="Layer_5" enable-background="new 0 0 64 64" height="512" viewBox="0 0 64 64" width="512" xmlns="http://www.w3.org/2000/svg"><g><g><g><path d="m40 33.98c-.01 0-.01 0-.02 0-.21.02-.43.02-.64.02h-3.34v4 5.58c0 3.8 1.08 7.45 3 10.56.31.5.65 1 1 1.47v2.39c0 2.21-8.51 4-19 4s-19-1.79-19-4v-32c0 2.21 8.51 4 19 4s19-1.79 19-4v7.97z" fill="#cf9e76"/></g><g><path d="m2 22c0 1.41 3.49 2.66 8.75 3.37 1.88.25 3.99.44 6.24.54 1.29.06 2.64.09 4.01.09 4.08 0 7.87-.27 10.97-.73 4.86-.73 8.03-1.92 8.03-3.27v4c0 2.21-8.51 4-19 4s-19-1.79-19-4z" fill="#ccd1d9"/></g><g><path d="m8.61 18.97 2.14 6.4c-5.26-.71-8.75-1.96-8.75-3.37 0-1.21 2.56-2.3 6.61-3.03z" fill="#e6e9ed"/></g><g><path d="m40 22c0 1.35-3.17 2.54-8.03 3.27v-.02l1.05-3.15 1-3.01c3.68.73 5.98 1.76 5.98 2.91z" fill="#e6e9ed"/></g><g><path d="m21.34 12.86v.01l-1.42 4.24-2.93 8.8c-2.25-.1-4.36-.29-6.24-.54l-2.14-6.4-1.25-3.75c-.59-1.78-.45-3.68.38-5.35.84-1.67 2.27-2.92 4.04-3.51.72-.24 1.47-.36 2.23-.36 3.01 0 5.68 1.92 6.63 4.79z" fill="#fcd770"/></g><g><path d="m36.26 5.87c.84 1.67.98 3.57.38 5.35l-2.62 7.87-1 3.01-13.1-4.99 1.42-4.24v-.01l2.02-6.07c.96-2.87 3.62-4.79 6.64-4.79.76 0 1.51.12 2.23.36 1.76.59 3.2 1.84 4.03 3.51z" fill="#fcd770"/></g><g><path d="m33.02 22.1-1.05 3.15v.02c-3.1.46-6.89.73-10.97.73-1.37 0-2.72-.03-4.01-.09l2.93-8.8z" fill="#b4dd7f"/></g><g><path d="m21 36c5.52 0 10 4.48 10 10s-4.48 10-10 10-10-4.48-10-10 4.48-10 10-10z" fill="#e6e9ed"/></g><g><path d="m27 44v4h-4v4h-4v-4h-4v-4h4v-4h4v4z" fill="#fcd770"/></g><g><path d="m46.24 52c1.01 0 1.99-.36 2.75-1.01l6.95 6.95.01.01c-1.46 1.43-3.16 2.65-5.06 3.6-.58.3-1.23.45-1.89.45s-1.31-.15-1.89-.45c-2.86-1.42-5.27-3.48-7.11-5.94-.35-.47-.69-.97-1-1.47-1.92-3.11-3-6.76-3-10.56v-5.58l7.01 7.01c-.65.76-1.01 1.74-1.01 2.75 0 1.17.48 2.23 1.24 3 .77.76 1.83 1.24 3 1.24z" fill="#aab2bd"/></g><g><path d="m54.76 39.24c-.77-.76-1.83-1.24-3-1.24-1.02 0-1.99.36-2.75 1.01-.09.07-.17.15-.25.23l-1.76 1.76-7.02-7.02h.02c3.39-.16 6.6-1.58 9-3.98 1.28 1.28 2.79 2.28 4.43 2.96s3.41 1.04 5.23 1.04h3.34v9.58c0 3.51-.92 6.89-2.58 9.84l-6.42-6.42 1.76-1.76c.08-.08.16-.16.23-.25.65-.76 1.01-1.73 1.01-2.75 0-1.17-.48-2.23-1.24-3z" fill="#aab2bd"/></g><g><path d="m53 47 6.42 6.42c-.93 1.66-2.1 3.19-3.47 4.53l-.01-.01-6.95-6.95-5.98-5.98-7.01-7.01v-4h3.34c.21 0 .43 0 .64-.02l7.02 7.02z" fill="#ff826e"/></g><g><path d="m43.01 45.01 5.98 5.98c-.76.65-1.74 1.01-2.75 1.01-1.17 0-2.23-.48-3-1.24-.76-.77-1.24-1.83-1.24-3 0-1.01.36-1.99 1.01-2.75z" fill="#b4dd7f"/></g><g><path d="m54.99 44.99c-.07.09-.15.17-.23.25l-1.76 1.76-6-6 1.76-1.76c.08-.08.16-.16.25-.23.76-.65 1.73-1.01 2.75-1.01 1.17 0 2.23.48 3 1.24.76.77 1.24 1.83 1.24 3 0 1.02-.36 1.99-1.01 2.75z" fill="#b4dd7f"/></g></g><g><path d="m58.657 33c-3.381 0-6.559-1.316-8.95-3.707l-.707-.707-.707.707c-1.995 1.995-4.541 3.229-7.293 3.587v-10.88c0-1.567-1.877-2.763-5.68-3.648l2.273-6.819c.677-2.027.523-4.197-.433-6.109-.955-1.911-2.593-3.335-4.611-4.008-.823-.276-1.68-.416-2.547-.416-3.449 0-6.498 2.199-7.587 5.471l-1.108 3.324c-1.266-2.888-4.101-4.795-7.301-4.795-.867 0-1.724.14-2.545.416-2.02.674-3.658 2.098-4.613 4.008-.956 1.912-1.11 4.082-.433 6.109l.891 2.673c-4.236.894-6.306 2.139-6.306 3.794v36c0 3.947 12.572 5 20 5 7.238 0 19.353-1.001 19.97-4.703 1.621 1.659 3.529 3.071 5.688 4.151.724.361 1.534.552 2.342.552s1.618-.191 2.341-.553c7.192-3.595 11.659-10.823 11.659-18.864v-10.583zm-19.654-11.03c-.199.562-2.14 1.378-5.564 2.023l1.248-3.743c3.786.853 4.289 1.72 4.316 1.72zm-18.463-3.551 11.223 4.276-.554 1.662c-2.749.381-6.17.643-10.209.643-.915 0-1.787-.018-2.639-.043zm3.772-11.316c.817-2.454 3.104-4.103 5.69-4.103.65 0 1.293.105 1.912.313 1.513.504 2.74 1.572 3.457 3.005.717 1.434.833 3.061.325 4.582l-3.299 9.895-11.224-4.275zm-15.675 3.215c.716-1.433 1.944-2.5 3.458-3.005.618-.208 1.261-.313 1.911-.313 2.586 0 4.873 1.649 5.69 4.103l.587 1.762-4.002 12.005c-1.757-.096-3.356-.241-4.785-.419l-3.184-9.551c-.507-1.521-.392-3.148.325-4.582zm-.694 9.797 1.338 4.015c-3.872-.653-6.058-1.528-6.281-2.092v-.014c.111-.275 1.243-1.149 4.943-1.909zm-4.943 4.287c3.845 1.996 12.388 2.598 18 2.598s14.155-.602 18-2.598v1.572c-.393 1.06-6.896 3.026-18 3.026-11.126 0-17.635-1.974-18-3zm18 36.598c-11.126 0-17.635-1.974-18-3v-29.598c3.845 1.996 12.388 2.598 18 2.598s14.155-.602 18-2.598v4.598h-4v10.583c0 4.563 1.442 8.862 4.001 12.386l.004 1.998c-.37 1.059-6.879 3.033-18.005 3.033zm29.447-.342c-.895.447-2 .447-2.895 0-6.509-3.254-10.552-9.797-10.552-17.075v-3.169l4.71 4.71c-.162.279-.294.573-.402.876h-2.308v2h2.025c.046.99.35 1.915.873 2.688l-1.605 1.605 1.414 1.414 1.605-1.605c.773.523 1.698.827 2.688.873v2.025h2v-2.308c.303-.108.597-.24.876-.402l5.634 5.634c-1.214 1.062-2.57 1.988-4.063 2.734zm-4.204-9.658c-1.788 0-3.243-1.455-3.243-3.243 0-.391.072-.775.207-1.136l4.171 4.171c-.36.136-.745.208-1.135.208zm9.704 5.533-18.947-18.947v-2.586h2.343c.078 0 .154-.009.232-.01l18.608 18.608c-.644 1.047-1.396 2.028-2.236 2.935zm-6.483-16.583c.613-.612 1.427-.95 2.293-.95 1.788 0 3.243 1.455 3.243 3.243 0 .866-.337 1.68-.95 2.293l-1.05 1.05-4.586-4.586zm11.536 3.633c0 2.896-.649 5.67-1.83 8.172l-4.756-4.755.586-.586 1.293 1.293 1.414-1.414-1.431-1.431c.333-.573.554-1.2.65-1.862h2.074v-2h-2.165c-.149-.609-.391-1.183-.733-1.688l1.605-1.605-1.414-1.414-1.605 1.605c-.505-.342-1.079-.583-1.688-.733v-2.165h-2v2.074c-.662.096-1.288.317-1.862.65l-1.431-1.431-1.414 1.414 1.293 1.293-.586.586-4.858-4.858c2.536-.488 4.892-1.632 6.858-3.358 2.673 2.348 6.066 3.63 9.657 3.63h2.343z"/><path d="m24 39h-6v4h-4v6h4v4h6v-4h4v-6h-4zm2 6v2h-4v4h-2v-4h-4v-2h4v-4h2v4z"/><path d="m21 35c-6.065 0-11 4.935-11 11s4.935 11 11 11 11-4.935 11-11-4.935-11-11-11zm0 20c-4.962 0-9-4.038-9-9s4.038-9 9-9 9 4.038 9 9-4.038 9-9 9z"/><path d="m5 40h2v2h-2z"/><path d="m5 36h2v2h-2z"/><path d="m5 32h2v2h-2z"/></g></g></svg>