<svg id="Layer_1" enable-background="new 0 0 512 512" height="512" viewBox="0 0 512 512" width="512" xmlns="http://www.w3.org/2000/svg"><g><path d="m76.296 174.583h36v32h-36z" fill="#fe7d43"/><circle cx="289.979" cy="233.5" fill="#ffd15b" r="37"/><path d="m289.979 196.5c-5.342 0-10.414 1.141-15 3.178 12.958 5.756 22 18.729 22 33.822s-9.042 28.066-22 33.822c4.586 2.037 9.658 3.178 15 3.178 20.435 0 37-16.565 37-37 0-20.434-16.565-37-37-37z" fill="#ffc344"/><path d="m289.133 101.573h-252c-1.839 0-3.253-1.647-2.961-3.463 2.12-13.195 13.559-23.273 27.357-23.273 1.555 0 3.09.14 4.576.389 2.891-17.495 18.073-30.843 36.385-30.843 4.037 0 7.915.658 11.544 1.854 3.039-21.88 21.81-38.737 44.529-38.737 24.842 0 44.968 20.136 44.968 44.978 0 1.864-.119 3.698-.339 5.503 5.204-3.479 11.464-5.503 18.203-5.503 15.381 0 28.291 10.577 31.859 24.852 3.499-1.595 7.387-2.492 11.484-2.492 13.798 0 25.237 10.078 27.357 23.273.292 1.815-1.123 3.462-2.962 3.462z" fill="#eaf9fa"/><path d="m292.095 98.11c-2.12-13.195-13.559-23.273-27.357-23.273-4.097 0-7.985.897-11.484 2.492-3.569-14.275-16.478-24.852-31.859-24.852-6.739 0-12.999 2.024-18.203 5.503.219-1.804.339-3.639.339-5.503 0-24.842-20.126-44.978-44.968-44.978-8.834 0-17.065 2.558-24.012 6.959 18.285 5.708 31.551 22.774 31.551 42.942v.085c-.005 2.266 2.301 3.738 4.367 2.805 4.115-1.858 8.684-2.89 13.497-2.89 14.289 0 26.444 9.127 30.96 21.867.548 1.547 2.237 2.365 3.797 1.855 2.703-.883 5.589-1.363 8.587-1.363 13.284 0 24.378 9.342 27.078 21.813h34.747c1.838.001 3.252-1.646 2.96-3.462z" fill="#dcf5f8"/><path d="m7.5 472.5v-246s134.33-11.5 291.908 77.846 205.092 95.404 205.092 95.404v72.75z" fill="#ffc344"/><path d="m299.408 304.346c-146.663-83.157-273.164-78.956-289.989-77.975 48.948 2.068 148.66 14.852 259.988 77.975 157.579 89.346 205.093 95.404 205.093 95.404v72.75h30v-72.75s-47.514-6.058-205.092-95.404z" fill="#feb237"/><path d="m488.5 504.5h-465c-8.837 0-16-7.163-16-16v-16h497v16c0 8.837-7.163 16-16 16z" fill="#ae6c6c"/><path d="m474.5 472.5v16c0 8.837-7.164 16-16 16h30c8.836 0 16-7.163 16-16v-16z" fill="#9b5e5e"/><path d="m504.5 472.5v-238.965s-238.808-8.511-360 238.965z" fill="#97da7b"/><path d="m474.5 235.027v237.473h30v-238.965s-11.211-.397-30 1.492z" fill="#80d261"/><g><path d="m245.479 233.5c0 24.538 19.963 44.5 44.5 44.5s44.5-19.962 44.5-44.5-19.963-44.5-44.5-44.5-44.5 19.963-44.5 44.5zm74 0c0 16.267-13.233 29.5-29.5 29.5s-29.5-13.233-29.5-29.5 13.233-29.5 29.5-29.5 29.5 13.234 29.5 29.5z"/><path d="m297.479 171.5v-10c0-4.142-3.357-7.5-7.5-7.5s-7.5 3.358-7.5 7.5v10c0 4.142 3.357 7.5 7.5 7.5s7.5-3.357 7.5-7.5z"/><path d="m333.82 197.16c1.919 0 3.839-.732 5.304-2.197l7.07-7.071c2.929-2.929 2.929-7.678-.001-10.607-2.928-2.929-7.677-2.928-10.606 0l-7.07 7.071c-2.929 2.929-2.929 7.678.001 10.607 1.463 1.465 3.383 2.197 5.302 2.197z"/><path d="m344.479 233.5c0 4.142 3.357 7.5 7.5 7.5h10c4.143 0 7.5-3.358 7.5-7.5s-3.357-7.5-7.5-7.5h-10c-4.142 0-7.5 3.358-7.5 7.5z"/><path d="m227.979 226h-10c-4.143 0-7.5 3.358-7.5 7.5s3.357 7.5 7.5 7.5h10c4.143 0 7.5-3.358 7.5-7.5s-3.357-7.5-7.5-7.5z"/><path d="m246.139 197.16c1.919 0 3.839-.732 5.304-2.197 2.929-2.929 2.929-7.678-.001-10.607l-7.071-7.071c-2.928-2.929-7.677-2.928-10.606 0-2.929 2.929-2.929 7.678.001 10.607l7.071 7.071c1.463 1.465 3.383 2.197 5.302 2.197z"/><path d="m37.133 109.073h147.942c4.143 0 7.5-3.358 7.5-7.5s-3.357-7.5-7.5-7.5h-141.922c3.212-7.032 10.269-11.736 18.375-11.736 1.084 0 2.206.096 3.334.286 1.961.328 3.98-.135 5.602-1.294 1.622-1.158 2.716-2.914 3.04-4.88 2.353-14.234 14.542-24.565 28.985-24.565 3.129 0 6.223.497 9.196 1.477 2.11.695 4.425.418 6.313-.757 1.888-1.176 3.156-3.13 3.463-5.333 2.557-18.398 18.507-32.271 37.102-32.271 20.66 0 37.468 16.813 37.468 37.478 0 1.503-.096 3.049-.284 4.597-.354 2.91 1.02 5.759 3.517 7.295 2.496 1.535 5.659 1.476 8.097-.154 4.147-2.772 9.001-4.238 14.035-4.238 11.652 0 21.761 7.883 24.583 19.171.541 2.161 2.014 3.97 4.021 4.937s4.339.991 6.366.068c2.646-1.206 5.462-1.817 8.373-1.817 8.105 0 15.162 4.704 18.374 11.736h-63.082c-4.143 0-7.5 3.358-7.5 7.5s3.357 7.5 7.5 7.5h69.104c3.081 0 5.994-1.346 7.993-3.692 1.996-2.343 2.86-5.427 2.373-8.461-2.755-17.142-17.374-29.583-34.763-29.583-2.334 0-4.634.226-6.887.674-6.563-13.874-20.614-23.034-36.456-23.034-3.654 0-7.252.487-10.712 1.437-3.015-26.09-25.24-46.414-52.12-46.414-23.291 0-43.619 15.549-50.215 37.271-1.938-.258-3.894-.388-5.858-.388-19.498 0-36.278 12.468-42.161 30.474-16.859.557-30.872 12.817-33.563 29.566-.486 3.035.379 6.118 2.376 8.459 1.999 2.346 4.911 3.691 7.991 3.691z"/><path d="m512 233.535c0-4.038-3.197-7.352-7.232-7.495-.769-.028-19.113-.62-48.222 3.659-4.099.603-6.932 4.413-6.329 8.511.603 4.099 4.422 6.931 8.511 6.33 17.233-2.534 30.607-3.274 38.272-3.471v22.792c-29.643 2.81-81.744 11.575-138.566 38.689-73.395 35.022-133.062 89.675-177.422 162.45h-24.33c73.285-141.12 185.487-194.214 267.696-213.833 4.028-.961 6.516-5.007 5.554-9.036-.961-4.029-5.005-6.515-9.036-5.554-46.48 11.093-89.829 29.576-129.123 54.987-74.428-40.253-142.882-58.127-189.972-66.036v-11.444h10.496c4.143 0 7.5-3.358 7.5-7.5v-24.5h7.307c4.143 0 7.5-3.358 7.5-7.5s-3.357-7.5-7.5-7.5h-25.304v-10.934c0-4.142-3.357-7.5-7.5-7.5s-7.5 3.358-7.5 7.5v10.933h-24.928c-4.143 0-7.5 3.358-7.5 7.5s3.357 7.5 7.5 7.5h6.924v24.5c0 4.142 3.357 7.5 7.5 7.5h10.504v9.143c-48.485-6.754-78.63-4.31-79.939-4.199-3.881.332-6.861 3.579-6.861 7.473v262c0 12.958 10.542 23.5 23.5 23.5h91.529c4.143 0 7.5-3.358 7.5-7.5s-3.357-7.5-7.5-7.5h-91.529c-4.687 0-8.5-3.813-8.5-8.5v-8.5h482v8.5c0 4.687-3.813 8.5-8.5 8.5h-338.447c-4.143 0-7.5 3.358-7.5 7.5s3.357 7.5 7.5 7.5h338.447c12.958 0 23.5-10.542 23.5-23.5zm-428.204-51.452h21v17h-10.438c-.02 0-.039-.003-.058-.003s-.038.003-.058.003h-10.446zm63.661 268.315c-65.268-16.364-113.909-16.968-132.457-16.412v-27.858c18.695-.521 73.982.117 146.162 20.566-4.745 7.703-9.317 15.603-13.705 23.704zm22.122-36.894c-76.267-22.246-133.97-23.044-154.579-22.42v-27.852c20.687-.588 86.229.237 170.339 27.964-5.436 7.223-10.691 14.659-15.76 22.308zm25.557-34.848c-88.731-30.137-157.252-31.166-180.136-30.465v-27.848c22.892-.644 100.688.463 197.859 37.799-6.092 6.614-12 13.453-17.723 20.514zm28.949-32.233c-62.751-24.837-117.628-34.634-152.946-38.464-26.471-2.87-45.912-2.934-56.139-2.641v-27.879c10.792-.315 33.758-.261 64.987 3.778 38.49 4.978 97.363 17.165 163.62 46.823-6.688 5.898-13.196 12.027-19.522 18.383zm-132.746-107.382c44.436 6.756 112.025 23.023 186.362 62.02-.094.066-.19.129-.284.196-7.227 5.12-14.28 10.475-21.156 16.058-70.792-32.665-134-45.797-174.883-51.043-31.695-4.067-54.869-4.187-66.378-3.856v-28.769c12.064-.353 39.324-.234 76.339 5.394zm-76.339 209.984c16.859-.476 63.472-.017 125.314 15.06-.153.304-.303.61-.456.915h-124.858zm339.638 15.975c41.072-37.458 88.852-65.292 142.362-82.941v22.656c-37.659 15-72.591 35.259-103.932 60.284h-38.43zm-56.422 0c65.584-72.896 142.134-105.203 198.784-119.488v20.777c-62.621 19.86-117.805 53.049-164.145 98.711zm-51.601 0c81.391-108.123 187.911-142.784 250.385-153.85v18.908c-61.609 14.948-147.363 50.528-218.673 134.942zm250.385-186.077v17.001c-66.108 11.262-182.673 48.25-268.97 169.076h-29.341c94.662-148.618 234.09-179.824 298.311-186.077zm-79.125 186.077c24.475-17.623 50.984-32.391 79.125-44.089v44.089z"/></g></g></svg>