<?xml version="1.0" encoding="iso-8859-1"?>
<!-- Generator: Adobe Illustrator 19.0.0, SVG Export Plug-In . SVG Version: 6.00 Build 0)  -->
<svg version="1.1" id="Capa_1" xmlns="http://www.w3.org/2000/svg" xmlns:xlink="http://www.w3.org/1999/xlink" x="0px" y="0px"
	 viewBox="0 0 512 512" style="enable-background:new 0 0 512 512;" xml:space="preserve">
<g>
	<circle style="fill:#FFFFFF;" cx="455.19" cy="93.39" r="6.563"/>
	<circle style="fill:#FFFFFF;" cx="455.19" cy="93.39" r="6.563"/>
	<circle style="fill:#FFFFFF;" cx="375.5" cy="38.08" r="18.75"/>
	<circle style="fill:#FFFFFF;" cx="455.19" cy="93.39" r="6.563"/>
	<path style="fill:#FFFFFF;" d="M135.5,158.078c24.853,0,45-20.147,45-45c0-0.653-0.022-1.301-0.049-1.948
		c0.637,0.043,1.277,0.073,1.924,0.073c9.033,0,17.067-4.261,22.211-10.881c1.592-2.048,4.635-2.318,6.569-0.59
		c9.284,8.299,21.537,13.346,34.97,13.346c27.765,0,50.481-21.556,52.359-48.844c0.071-1.032,0.962-1.782,1.996-1.781
		c0.007,0,0.013,0,0.02,0c9.936,0,17.866-8.587,16.774-18.745c-0.826-7.683-6.978-13.925-14.646-14.873
		c-2.96-0.366-5.784,0.045-8.31,1.048c-2.547,1.012-5.425,0.142-7.133-2.001c-9.617-12.065-24.43-19.804-41.059-19.804
		c-26.077,0-47.705,19.015-51.794,43.935c-0.421,2.567-2.946,4.293-5.478,3.694c-2.08-0.492-4.248-0.754-6.479-0.754
		c-10.549,0-19.737,5.81-24.549,14.404c-1.088,1.943-3.405,2.834-5.469,1.998c-5.206-2.109-10.894-3.276-16.857-3.276
		c-23.804,0-43.277,18.485-44.88,41.882c-11.296,2.609-19.59,13.062-18.82,25.317c0.788,12.544,11.33,22.581,23.897,22.797"/>
</g>
<g>
	<path style="fill:#B9ECFF;" d="M111.245,134.335c1.603-23.397,21.077-41.882,44.88-41.882c5.963,0,11.651,1.167,16.857,3.276
		c2.064,0.836,4.381-0.054,5.469-1.998c4.812-8.593,14-14.404,24.549-14.404c2.23,0,4.399,0.262,6.478,0.754
		c2.531,0.599,5.056-1.127,5.478-3.694c4.089-24.92,25.717-43.935,51.794-43.935c16.629,0,31.442,7.738,41.059,19.804
		c1.708,2.143,4.586,3.013,7.133,2.001c0.009-0.004,0.019-0.007,0.029-0.01c1.818-3.027,2.719-6.667,2.303-10.54
		c-0.826-7.682-6.978-13.925-14.646-14.873c-2.96-0.366-5.784,0.045-8.31,1.048c-2.547,1.012-5.425,0.142-7.133-2.001
		c-9.617-12.065-24.43-19.804-41.059-19.804c-26.077,0-47.705,19.015-51.794,43.935c-0.421,2.567-2.946,4.293-5.478,3.694
		c-2.08-0.492-4.248-0.754-6.479-0.754c-10.549,0-19.737,5.81-24.549,14.404c-1.088,1.943-3.405,2.834-5.469,1.998
		c-5.206-2.109-10.894-3.276-16.857-3.276c-23.804,0-43.277,18.485-44.88,41.882c-11.296,2.609-19.59,13.062-18.82,25.317
		c0.718,11.427,9.53,20.769,20.592,22.507C92.529,146.348,100.528,136.81,111.245,134.335z"/>
	<path style="fill:#B9ECFF;" d="M287.16,245.385c0.268-2.413,0.28-4.779,0.066-7.08c-0.262-2.809,1.944-5.231,4.765-5.227h0.071
		c7.47,0,14.118-3.499,18.41-8.942c10.063,7.355,22.652,11.46,36.23,10.735c28.557-1.525,51.675-24.726,53.1-53.288
		c0.486-9.74-1.509-18.969-5.407-27.115c-2.318-4.844-1.048-10.624,3.2-13.91c7.089-5.485,11.654-14.072,11.654-23.729
		c0-17.134-14.365-30.914-31.708-29.953c-14.96,0.829-27.195,12.911-28.22,27.859c-0.052,0.751-0.075,1.497-0.071,2.237
		c0.014,3.061-2.501,5.485-5.562,5.482c-0.021,0-0.042,0-0.063,0c-18.18,0-34.338,8.631-44.619,22.013
		c-1.8,2.342-5.016,3.064-7.601,1.634c-6.218-3.44-13.465-5.247-21.162-4.841c-19.007,1.003-36.065,17.961-37.173,36.962
		c-0.479,8.205,1.561,15.901,5.414,22.396c2.233,3.764,0.983,8.55-2.823,10.712c-9.89,5.619-16.813,15.961-17.585,27.875"/>
</g>
<path style="fill:#FFFFFF;" d="M397.596,140.557c7.089-5.485,11.654-14.072,11.654-23.729c0-15.589-11.891-28.396-27.096-29.857
	c4.05,5.114,6.471,11.577,6.471,18.607c0,9.657-4.565,18.244-11.654,23.729c-4.247,3.286-5.517,9.066-3.2,13.91
	c3.897,8.146,5.893,17.375,5.407,27.115c-1.425,28.562-24.543,51.763-53.1,53.288c-13.578,0.725-26.167-3.38-36.23-10.735
	c-4.292,5.443-10.94,8.942-18.41,8.942h-0.071c-2.821-0.005-5.027,2.417-4.765,5.227c0.214,2.301,0.202,4.667-0.066,7.08
	l-46.541-4.163c-1.042,2.924-1.711,6.018-1.919,9.233l69.085,6.18c0.268-2.413,0.28-4.779,0.066-7.08
	c-0.262-2.809,1.944-5.231,4.765-5.227h0.071c7.47,0,14.118-3.499,18.41-8.942c10.063,7.355,22.652,11.46,36.23,10.735
	c28.557-1.525,51.675-24.726,53.1-53.288c0.486-9.74-1.509-18.969-5.407-27.115C392.078,149.623,393.348,143.843,397.596,140.557z"
	/>
<polygon style="fill:#7D8083;" points="317.864,504.953 294.875,240.578 203,240.578 184.591,443.078 191.75,503.078 "/>
<polygon style="fill:#C4C4CA;" points="227.744,503.078 246.153,248.203 295.538,248.203 294.875,240.578 203,240.578 
	184.591,443.078 191.75,503.078 234.068,503.707 "/>
<polyline style="fill:#7D8083;" points="189.875,503.078 159.875,158.078 68,158.078 38,503.078 "/>
<polygon style="fill:#C4C4CA;" points="68,158.078 38,503.078 77.375,503.078 107.375,158.078 "/>
<g>
	<rect x="58.62" y="255.58" style="fill:#FFFFFF;" width="16.875" height="15"/>
	<rect x="150.5" y="255.58" style="fill:#FFFFFF;" width="15" height="15"/>
	<rect x="62.37" y="195.58" style="fill:#FFFFFF;" width="101.25" height="37.5"/>
</g>
<polygon style="fill:#B9ECFF;" points="163.625,233.078 101.75,233.078 103.625,197.453 163.625,195.578 "/>
<rect x="197.37" y="268.7" style="fill:#FFFFFF;" width="101.25" height="33.75"/>
<polygon style="fill:#B9ECFF;" points="298.625,302.453 242.375,302.453 244.08,270.39 298.625,268.703 "/>
<path d="M375.5,64.328c-14.474,0-26.25-11.776-26.25-26.25s11.776-26.25,26.25-26.25s26.25,11.776,26.25,26.25
	S389.974,64.328,375.5,64.328z M375.5,26.828c-6.203,0-11.25,5.047-11.25,11.25s5.047,11.25,11.25,11.25s11.25-5.047,11.25-11.25
	S381.703,26.828,375.5,26.828z"/>
<path d="M455.187,86.828c3.624,0,6.563,2.938,6.563,6.563s-2.938,6.563-6.563,6.563c-3.624,0-6.562-2.938-6.562-6.563
	S451.563,86.828,455.187,86.828 M455.187,71.828c-11.89,0-21.562,9.673-21.562,21.563s9.673,21.563,21.562,21.563
	c11.89,0,21.563-9.673,21.563-21.563S467.077,71.828,455.187,71.828L455.187,71.828z"/>
<g>
	<rect x="90.5" y="255.58" style="fill:#FFFFFF;" width="15" height="15"/>
	<rect x="120.5" y="255.58" style="fill:#FFFFFF;" width="15" height="15"/>
</g>
<path d="M128,120.578h-15c0-16.542,13.458-30,30-30v15C134.729,105.578,128,112.307,128,120.578z"/>
<path d="M240.5,88.703v-15c8.271,0,15-6.729,15-15h15C270.5,75.245,257.042,88.703,240.5,88.703z"/>
<g>
	<rect x="195.5" y="323.08" style="fill:#FFFFFF;" width="16.875" height="15"/>
	<rect x="225.5" y="323.08" style="fill:#FFFFFF;" width="15" height="15"/>
	<rect x="255.5" y="323.08" style="fill:#FFFFFF;" width="15" height="15"/>
	<rect x="285.5" y="323.08" style="fill:#FFFFFF;" width="15" height="15"/>
</g>
<path d="M264.875,180.578h-15c0-11.373,9.252-20.625,20.625-20.625v15C267.398,174.953,264.875,177.476,264.875,180.578z"/>
<path d="M347.375,218.078v-15c11.373,0,20.625-9.252,20.625-20.625h15C383,202.097,367.019,218.078,347.375,218.078z"/>
<path d="M324.651,496.422l-22.398-257.575c3.333-1.16,6.452-2.871,9.216-5.107c10.708,6.25,23.135,9.287,35.634,8.62
	c15.667-0.836,30.455-7.478,41.637-18.7c11.183-11.222,17.772-26.033,18.554-41.703c0.529-10.611-1.591-21.236-6.132-30.725
	c-0.812-1.697-0.391-3.647,1.023-4.742c9.256-7.162,14.565-17.973,14.565-29.661c0-10.26-4.276-20.19-11.731-27.244
	c-7.561-7.154-17.466-10.776-27.892-10.197c-18.827,1.043-33.998,16.019-35.288,34.837c-0.017,0.251-0.032,0.502-0.044,0.754
	c-18.831,0.526-36.158,9.161-47.956,23.92c-7.367-3.799-15.632-5.571-23.993-5.129c-22.672,1.196-42.944,21.352-44.266,44.015
	c-0.548,9.402,1.683,18.621,6.451,26.659c0.052,0.088,0.068,0.158,0.05,0.225c-0.013,0.05-0.039,0.09-0.127,0.14
	c-10.777,6.124-18.197,16.438-20.601,28.269H196.15l-11.36,124.959l-17.66-203.085c11.361-8.603,19.128-21.715,20.61-36.648
	c7.961-1.195,15.234-5.036,20.748-10.999c10.642,8.581,23.89,13.273,37.636,13.273c29.814,0,55.017-22.108,59.332-51.136
	c5.045-1.051,9.684-3.687,13.18-7.579c4.616-5.138,6.837-12.048,6.094-18.957c-1.193-11.097-10.103-20.145-21.184-21.514
	c-3.729-0.461-7.52-0.06-11.028,1.16C281.063,8.576,264.202,0.578,246.125,0.578c-28.509,0-52.701,19.691-58.631,47.243
	c-1.692-0.245-3.404-0.368-5.119-0.368c-12.002,0-23.166,6.069-29.729,16.001c-5.508-1.909-11.263-2.876-17.146-2.876
	c-25.747,0-47.558,18.835-51.757,43.744c-12.347,5.166-20.296,17.621-19.428,31.426c0.341,5.422,2.068,10.475,4.814,14.83h-8.004
	L31.051,496.422H0v15h512v-15H324.651z M239.365,217.851c3.598-2.044,6.161-5.359,7.216-9.335c1.058-3.987,0.473-8.151-1.647-11.725
	c-3.237-5.457-4.75-11.727-4.377-18.133c0.883-15.134,14.939-29.11,30.081-29.909c6.011-0.314,11.936,1.037,17.137,3.914
	c5.853,3.238,13.077,1.712,17.179-3.627c9.317-12.127,23.413-19.082,38.727-19.082c0.005,0,0.01,0,0.016,0
	c3.519,0,6.817-1.365,9.289-3.846c2.445-2.453,3.783-5.71,3.767-9.17c-0.002-0.56,0.016-1.129,0.054-1.689
	c0.761-11.095,10.052-20.269,21.153-20.884c6.269-0.348,12.217,1.825,16.752,6.116c4.54,4.295,7.041,10.101,7.041,16.348
	c0,7.011-3.187,13.498-8.744,17.798c-7.054,5.458-9.265,14.949-5.375,23.079c3.518,7.352,5.093,15.26,4.682,23.504
	c-1.227,24.579-21.437,44.861-46.01,46.173c-11.387,0.609-22.249-2.608-31.404-9.301l-5.838-4.267l-4.478,5.678
	c-3.049,3.868-7.613,6.086-12.58,6.086c-0.007,0-0.013,0-0.02,0c-3.443,0-6.748,1.457-9.068,4c-0.948,1.038-1.689,2.228-2.226,3.501
	h-53.855C228.912,226.731,233.325,221.282,239.365,217.851z M204.395,308.078H278v-15h-72.242l4.091-45h78.15l1.304,15H225.5v15
	h65.108l18.987,218.344h-112.77l-4.67-53.704L204.395,308.078z M158.216,225.578H69.659l1.957-22.5h84.645L158.216,225.578z
	 M152.999,165.578l1.957,22.5H72.919l1.957-22.5H152.999z M79.285,134.807c-0.522-8.299,4.955-15.676,13.022-17.539l5.415-1.251
	l0.38-5.544c1.341-19.567,17.768-34.895,37.398-34.895c4.85,0,9.574,0.918,14.042,2.728c5.515,2.234,11.891-0.038,14.828-5.285
	c3.65-6.519,10.549-10.568,18.005-10.568c1.605,0,3.203,0.186,4.75,0.552c3.209,0.76,6.63,0.141,9.389-1.697
	c2.777-1.851,4.68-4.796,5.219-8.081c3.58-21.816,22.25-37.649,44.393-37.649c13.766,0,26.594,6.188,35.195,16.979
	c3.823,4.797,10.159,6.523,15.767,4.296c1.46-0.58,3.015-0.773,4.621-0.575c4.242,0.524,7.653,3.986,8.109,8.231
	c0.292,2.722-0.538,5.325-2.339,7.33c-1.778,1.979-4.321,3.114-6.987,3.114c-0.005,0-0.009,0-0.014,0
	c-4.976,0-9.136,3.847-9.476,8.766c-1.616,23.472-21.328,41.859-44.876,41.859c-11.076,0-21.721-4.062-29.972-11.438
	c-2.468-2.206-5.782-3.298-9.094-2.999c-3.308,0.3-6.368,1.969-8.395,4.578c-3.943,5.073-9.88,7.983-16.289,7.983
	c-0.478,0-0.95-0.024-1.419-0.056l-8.358-0.564l0.36,8.37c0.023,0.54,0.042,1.08,0.042,1.625c0,20.677-16.822,37.5-37.5,37.5H95.825
	v-0.002C87.096,150.425,79.831,143.499,79.285,134.807z M68.354,240.578h91.167l22.247,255.844H46.107L68.354,240.578z"/>
<g>
</g>
<g>
</g>
<g>
</g>
<g>
</g>
<g>
</g>
<g>
</g>
<g>
</g>
<g>
</g>
<g>
</g>
<g>
</g>
<g>
</g>
<g>
</g>
<g>
</g>
<g>
</g>
<g>
</g>
</svg>
