<svg height="512" viewBox="0 0 60 60" width="512" xmlns="http://www.w3.org/2000/svg"><g id="Page-1" fill="none" fill-rule="evenodd"><g id="035---Sick-Earth" fill-rule="nonzero"><g id="Color" transform="translate(1 1)"><path id="Shape" d="m25 .28v8.72c0 1.6568542-1.3431458 3-3 3s-3 1.3431458-3 3v1.82l-4.71 2.14c-.6498113.8969711-1.065691 1.9418257-1.21 3.04h-.08c-1.6568542 0-3 1.3431458-3 3v6c0 1.6568542-1.34314575 3-3 3h-6.56c-.29376682-1.6504382-.44100697-3.3236217-.44-5-.00424555-14.4717391 10.6658054-26.72949362 25-28.72z" fill="#a4c400"/><g fill="#00bcd4"><path id="Shape" d="m56.95 21.27c-.5382607.4746055-1.2323963.7344614-1.95.73-1.5899536-.0681304-2.8500463-1.3659156-2.8712987-2.9571863-.0212524-1.5912708 1.2037317-2.9222456 2.7912987-3.0328137v-.01c-.6896796-1.4028103-1.5028902-2.7414286-2.43-4h-10.62c-.6441195.0029655-1.2792063-.151515-1.85-.45-1.2294865-.6290583-2.0077899-1.88898508-2.02-3.27.0437488-2.09490146 1.7750058-3.75905547 3.87-3.72.1704402.00002529.3407323.01004247.51.03.027234-.40641141.1113886-.80698719.25-1.19-4.1934707-2.23989585-8.8758158-3.40790562-13.63-3.4-1.338335-.00307169-2.6751447.090505-4 .28v8.72c0 1.6568542-1.3431458 3-3 3s-3 1.3431458-3 3v1.82l1.72-.78c3.6943152.3963845 6.435301 3.6100159 6.243924 7.3206035s-3.2484317 6.6251797-6.963924 6.6393965c-1.5473182-1.7835039-3.6633904-2.977548-5.99-3.38-.6634918-1.0906816-1.0129971-2.3433643-1.01-3.62-.0035977-.3350656.0231785-.6697679.08-1h-.08c-1.6568542 0-3 1.3431458-3 3v6c0 1.6568542-1.34314575 3-3 3h-6.56c.77643983 4.5179029 2.62476699 8.7838009 5.39 12.44 1.03622563-1.5231607 2.75778157-2.4363339 4.6-2.44 2.5013565.0210057 4.6907067 1.6854001 5.38 4.09.4073029-.111757.8276446-.1689235 1.25-.17 2.7554912.0285758 4.9666447 2.2844895 4.94 5.04.0045133 1.4220129-.5909565 2.7799746-1.64 3.74 2.798941.8622773 5.7112472 1.3004715 8.64 1.3 4.8376078.0070886 9.599672-1.1997594 13.85-3.51.1000653-.3204492.1506475-.6542913.15-.99-.0093024-1.9291303-1.5708697-3.4906976-3.5-3.5-2.4330464-.0047443-4.4239549-1.9381376-4.5-4.37.0102987-1.2386589.512391-2.4224588 1.3957553-3.2908191.8833643-.8683602 2.0755911-1.3501012 3.3142447-1.3391809h3.29c1.0612728.0013291 2.0794609-.4196715 2.8298947-1.1701053s1.1714344-1.7686219 1.1701053-2.8298947c0-2.209139 1.790861-4 4-4h6.72c.189495-1.3248553.2830717-2.661665.28-4 .0051158-2.6125577-.3481774-5.2134689-1.05-7.73z"/><circle id="Oval" cx="28" cy="51" r="2"/><path id="Shape" d="m43.99 26.62c-2.3266096.402452-4.4426818 1.5964961-5.99 3.38-3.7154923-.0142168-6.772547-2.9288089-6.963924-6.6393965s2.5496088-6.924219 6.243924-7.3206035l.58.26 5.85 2.66c1.6121225 2.269168 1.7221493 5.2791876.28 7.66z"/></g><path id="Shape" d="m39.63 3.4c-.1386114.38301281-.222766.78358859-.25 1.19-.1692677-.01995753-.3395598-.02997471-.51-.03-2.0949942-.03905547-3.8262512 1.62509854-3.87 3.72.0122101 1.38101492.7905135 2.6409417 2.02 3.27.5707937.298485 1.2058805.4529655 1.85.45h3c-.6441195.0029655-1.2792063-.151515-1.85-.45-1.2294865-.6290583-2.0077899-1.88898508-2.02-3.27.0437488-2.09490146 1.7750058-3.75905547 3.87-3.72.1704402.00002529.3407323.01004247.51.03.027234-.40641141.1113886-.80698719.25-1.19-4.1934707-2.23989585-8.8758158-3.40790562-13.63-3.4-.482 0-.957.026-1.432.049 4.2178736.21821873 8.335994 1.36229278 12.062 3.351z" fill="#00838f"/><path id="Shape" d="m51.92 16.01c-1.587567.1105681-2.8125511 1.4415429-2.7912987 3.0328137.0212524 1.5912707 1.2813451 2.8890559 2.8712987 2.9571863.5304102.0015793 1.0514082-.1400714 1.508-.41-1.1666265-.6643979-1.7464016-2.0257047-1.4170546-3.3272317.3293469-1.3015271 1.4868291-2.2232268 2.8290546-2.2527683v-.01c-.6896796-1.4028103-1.5028902-2.7414286-2.43-4h-3c.9271098 1.2585714 1.7403204 2.5971897 2.43 4z" fill="#00838f"/><path id="Shape" d="m56.95 21.27c-.5382607.4746055-1.2323963.7344614-1.95.73-.3095444-.0040702-.6165629-.0563646-.91-.155.6040596 2.3370414.9098238 4.7411544.91 7.155.0030717 1.338335-.090505 2.6751447-.28 4h3c.189495-1.3248553.2830717-2.661665.28-4 .0051158-2.6125577-.3481774-5.2134689-1.05-7.73z" fill="#00838f"/><path id="Shape" d="m57.72 33c-1.2652934 9.1172824-6.7837345 17.0924875-14.87 21.49.1000653-.3204492.1506475-.6542913.15-.99-.0093024-1.9291303-1.5708697-3.4906976-3.5-3.5-2.4330464-.0047443-4.4239549-1.9381376-4.5-4.37.0102987-1.2386589.512391-2.4224588 1.3957553-3.2908191.8833643-.8683602 2.0755911-1.3501012 3.3142447-1.3391809h3.29c1.0612728.0013291 2.0794609-.4196715 2.8298947-1.1701053s1.1714344-1.7686219 1.1701053-2.8298947c0-2.209139 1.790861-4 4-4z" fill="#a4c400"/><path id="Shape" d="m54.72 33c-1.0912918 7.8823443-5.3787983 14.9680319-11.855 19.592.0851174.2953298.1305167.6006817.135.908.0006475.3357087-.0499347.6695508-.15.99 8.0862655-4.3975125 13.6047066-12.3727176 14.87-21.49z" fill="#90ac00"/><path id="Shape" d="m45 23c.0029971 1.2766357-.3465082 2.5293184-1.01 3.62-2.3266096.402452-4.4426818 1.5964961-5.99 3.38-3.7154923-.0142168-6.772547-2.9288089-6.963924-6.6393965s2.5496088-6.924219 6.243924-7.3206035l.58.26 5.85 2.66c.8450525 1.1770476 1.2965471 2.5910307 1.29 4.04z" fill="#fff"/><path id="Shape" d="m13 23c-.0029971 1.2766357.3465082 2.5293184 1.01 3.62 2.3266096.402452 4.4426818 1.5964961 5.99 3.38 3.7154923-.0142168 6.772547-2.9288089 6.963924-6.6393965s-2.5496088-6.924219-6.243924-7.3206035l-.58.26-5.85 2.66c-.8450525 1.1770476-1.2965471 2.5910307-1.29 4.04z" fill="#fff"/><circle id="Oval" cx="21" cy="23" fill="#37474f" r="2"/><circle id="Oval" cx="37" cy="23" fill="#37474f" r="2"/><path id="Shape" d="m22 52.96c.0045133 1.4220129-.5909565 2.7799746-1.64 3.74-.8951144.8364959-2.0748658 1.3012465-3.3 1.3h-12.81c-2.36061586-.0506781-4.24782812-1.9788402-4.24782812-4.34s1.88721226-4.2893219 4.24782812-4.34c.19039402.0000203.38065575.010034.57.03.06393675-1.0441672.41329855-2.0507443 1.01-2.91 1.03622563-1.5231607 2.75778157-2.4363339 4.6-2.44 2.5013565.0210057 4.6907067 1.6854001 5.38 4.09.4073029-.111757.8276446-.1689235 1.25-.17 2.7554912.0285758 4.9666447 2.2844895 4.94 5.04z" fill="#7f8e94"/><path id="Shape" d="m17.06 47.92c-.4223554.0010765-.8426971.058243-1.25.17-.6892933-2.4045999-2.8786435-4.0689943-5.38-4.09-.51512679.0017747-1.02745595.0758302-1.522.22 1.8779472.5353147 3.3502 1.9962425 3.9 3.87.4073029-.111757.8276446-.1689235 1.25-.17 2.7562754.0274796 4.9686409 2.2837164 4.942 5.04.0045133 1.4220129-.5909565 2.7799746-1.64 3.74-.8951144.8364959-2.0748658 1.3012465-3.3 1.3h3c1.2251342.0012465 2.4048856-.4635041 3.3-1.3 1.0490435-.9600254 1.6445133-2.3179871 1.64-3.74.0266447-2.7555105-2.1845088-5.0114242-4.94-5.04z" fill="#545c60"/><path id="Shape" d="m58 7.68c-.0497752 2.4315762-2.0583137 4.3640675-4.49 4.32h-11.64c-.6441195.0029655-1.2792063-.151515-1.85-.45-1.2294865-.6290583-2.0077899-1.88898508-2.02-3.27.0437488-2.09490146 1.7750058-3.75905547 3.87-3.72.1704402.00002529.3407323.01004247.51.03.027234-.40641141.1113886-.80698719.25-1.19.7483924-2.05899434 2.7147389-3.42149264 4.9054107-3.39900114s4.1286293 1.42507505 4.8345893 3.49900114c.3730426-.09204096.7557717-.13904277 1.14-.14 2.4316863-.0440675 4.4402248 1.88842384 4.49 4.32z" fill="#7f8e94"/><path id="Shape" d="m53.51 3.36c-.3842283.00095723-.7669574.04795904-1.14.14-.6956535-2.10576911-2.6723949-3.5206147-4.89-3.5-.5082999.00237693-1.0135648.07850351-1.5.226 1.6031665.46137324 2.8731107 1.68786212 3.39 3.274.3730426-.09204096.7557717-.13904277 1.14-.14 2.4316863-.0440675 4.4402248 1.88842384 4.49 4.32-.0497752 2.4315762-2.0583137 4.3640675-4.49 4.32h3c2.4316863.0440675 4.4402248-1.8884238 4.49-4.32-.0497752-2.43157616-2.0583137-4.3640675-4.49-4.32z" fill="#545c60"/><path id="Shape" d="m58 19c.0013303.8743641-.3828194 1.704859-1.05 2.27-.5382607.4746055-1.2323963.7344614-1.95.73-1.5899536-.0681304-2.8500463-1.3659156-2.8712987-2.9571863-.0212524-1.5912708 1.2037317-2.9222456 2.7912987-3.0328137v-.01h.08c1.6568542 0 3 1.3431458 3 3z" fill="#7f8e94"/><path id="Shape" d="m55 16h-.08v.01c-.4991059.0130729-.9867015.1527792-1.417.406.9143442.5405562 1.4756735 1.5233959 1.4767 2.5855754s-.5584023 2.0461022-1.4717 2.5884246c.4524469.2659149.9672028.4073693 1.492.41.7176037.0044614 1.4117393-.2553945 1.95-.73.9548964-.814612 1.300081-2.138497.8645107-3.3156538-.4355704-1.1771569-1.5593573-1.9574946-2.8145107-1.9543462z" fill="#545c60"/><circle id="Oval" cx="28" cy="51" fill="#7f8e94" r="2"/></g><g id="Outline" fill="#000"><path id="Shape" d="m39 32c.3025116-.0010119.5885415-.1379684.779-.373 1.3917242-1.581673 3.27828-2.6451518 5.352-3.017.2959751-.0422072.5575405-.2146276.713-.47 1.6511409-2.7238499 1.5245743-6.1686604-.322-8.764-.1023878-.1421563-.2403249-.2549199-.4-.327l-6.431-2.92c-.160304-.0725582-.3369154-.1015335-.512-.084-4.2246025.4497753-7.3608165 4.1232916-7.1424904 8.3661559.218326 4.2428644 3.7150349 7.5750689 7.9634904 7.5888441zm-.879-13.934 5.922 2.689c.6294713.964805.9621994 2.093021.957 3.245.0012686.9434546-.2207839 1.8738136-.648 2.715-2.2131783.4839155-4.2293648 1.6230295-5.786 3.269-3.0485101-.2246604-5.440791-2.7052497-5.5548469-5.7598983-.1140559-3.0546485 2.0865787-5.7067304 5.1098469-6.1581017z"/><path id="Shape" d="m22 27c1.6568542 0 3-1.3431458 3-3s-1.3431458-3-3-3-3 1.3431458-3 3 1.3431458 3 3 3zm0-4c.5522847 0 1 .4477153 1 1s-.4477153 1-1 1-1-.4477153-1-1 .4477153-1 1-1z"/><path id="Shape" d="m38 27c1.6568542 0 3-1.3431458 3-3s-1.3431458-3-3-3-3 1.3431458-3 3 1.3431458 3 3 3zm0-4c.5522847 0 1 .4477153 1 1s-.4477153 1-1 1-1-.4477153-1-1 .4477153-1 1-1z"/><path id="Shape" d="m60 8.68c-.0504136-2.98241025-2.5044561-5.36176248-5.487-5.32-.1726667 0-.3446667.008-.516.024-1.0215657-2.01540522-3.0620372-3.31220486-5.3205031-3.38138835-2.258466-.06918349-4.3744867 1.10029049-5.5174969 3.04938835-4.0975369-2.00374461-8.5977742-3.04749595-13.159-3.052-1.3837912-.00232575-2.7659791.09425363-4.136.289-14.8082498 2.09747094-25.82686395 14.7549889-25.864 29.711-.00114677 1.7330061.15077687 3.4627271.454 5.169.77445632 4.4504996 2.54979212 8.6669221 5.192 12.331-.31829052.5717514-.55141493 1.1869034-.692 1.826-2.838087.2242232-5.00257168 2.6332725-4.92285475 5.4790868s2.37566616 5.1299178 5.22185475 5.1949132h12.81c1.2787073-.0012164 2.5215367-.4228718 3.537-1.2 7.6003622 2.2161395 15.7682923 1.342493 22.728-2.431 8.3546522-4.5567981 14.0590266-12.7995821 15.38-22.224.1966647-1.3728704.2942502-2.7581168.292-4.145-.000734-2.5105901-.3202902-5.0109242-.951-7.441.9439765-1.1061068 1.2059741-2.6405265.6825089-3.9971945-.5234651-1.3566681-1.7482191-2.3174304-3.1905089-2.5028055-.3766667-.7273333-.7836667-1.4336667-1.221-2.119 2.6499642-.3474874 4.6430727-2.5876051 4.68-5.26zm-11.521-6.68c1.7800388-.01643108 3.3689235 1.11329909 3.938 2.8.15843.50677477.6852944.80137975 1.2.671.2941673-.07454641.5965352-.11183845.9-.111 1.8767653-.04028089 3.4333516 1.44345914 3.483 3.32-.0490992 1.8783773-1.6084748 3.3630711-3.487 3.32h-11.646c-1.5423841.0375041-2.8244768-1.1797461-2.867-2.722.0425232-1.54225393 1.3246159-2.75950407 2.867-2.722.1290777-.00020442.258027.00814722.386.025.2736313.03727541.5503642-.04179112.763-.218.21177-.17376489.342985-.42679643.363-.7.1969983-2.10605366 1.9851427-3.70360802 4.1-3.663zm-23.479.454v7.546c0 1.1045695-.8954305 2-2 2-2.209139 0-4 1.790861-4 4v1.177l-4.124 1.872c-.1596751.0720801-.2976122.1848437-.4.327-.5763144.8135349-.9911498 1.7301106-1.222 2.7-1.8856059.3579436-3.2512071 2.0047227-3.254 3.924v6c0 1.1045695-.8954305 2-2 2h-5.685c-.2025544-1.3238503-.30783626-2.6607627-.315-4 .03603361-13.5214911 9.7019291-25.09787189 23-27.546zm-3.121 15.612c3.0232682.4513713 5.2239028 3.1034532 5.1098469 6.1581017-.1140559 3.0546486-2.5063368 5.5352379-5.5548469 5.7598983-1.5566352-1.6459705-3.5728217-2.7850845-5.786-3.269-.4272161-.8411864-.6492686-1.7715454-.648-2.715-.0051994-1.151979.3275287-2.280195.957-3.245zm-16.626 39.934c-1.80703317-.0541427-3.24385136-1.5346559-3.24385136-3.3425s1.43681819-3.2883573 3.24385136-3.3425c.14350864.0004319.28682799.0104543.429.03.27524977.0380925.55393837-.0400605.7692452-.2157205.21530684-.17566.34781555-.432986.3657548-.7102795.13690179-2.4550661 2.15034786-4.3855105 4.609-4.419 2.0554179.0269543 3.8515154 1.3947329 4.424 3.369.1534956.5203822.6939439.8234415 1.218.683.3243711-.0878017.6589558-.1321888.995-.132 2.1962106.0488681 3.9511056 1.8432458 3.9511056 4.04s-1.754895 3.9911319-3.9511056 4.04zm17.847-.856c.5886232-.9577042.9001642-2.0598672.9-3.184.0222141-3.3048364-2.6322703-6.0053731-5.937-6.04-.2037492.0001356-.4073549.0108166-.61.032-1.0629058-2.3829338-3.4178768-3.9271258-6.027-3.952-1.681003.0098719-3.29321357.6687286-4.5 1.839-2.04556375-2.9722048-3.49345162-6.3139287-4.263-9.839h5.337c2.209139 0 4-1.790861 4-4v-6c.0016313-.715715.3918897-1.3740605 1.019-1.719.040986 1.3626828.4325876 2.6917864 1.137 3.859.1554595.2553724.4170249.4277928.713.47 2.0728429.3714367 3.9586906 1.4342088 5.35 3.015.1898615.2371369.4772217.375114.781.375 4.2480896-.0148036 7.7438261-3.3473068 7.961603-7.5898364.217777-4.2425296-2.9183575-7.9154592-7.142603-8.3651636-.1750846-.0175335-.351696.0114418-.512.084l-.307.14v-.269c0-1.1045695.8954305-2 2-2 2.209139 0 4-1.790861 4-4v-7.822c.9959955-.11411473 1.9974985-.17353724 3-.178 4.1196954.00281158 8.1881598.91340193 11.916 2.667-2.2410183.4010692-3.8831256 2.33461275-3.916 4.611.0427527 2.6467567 2.2201608 4.7592944 4.867 4.722h10.091c.5269624.750209 1.0130043 1.5283433 1.456 2.331-1.7374447.7544697-2.7074913 2.6241572-2.3238787 4.4790912.3836127 1.8549339 2.0156963 3.1864837 3.9098787 3.1899088.4385125-.005133.8731145-.0831992 1.286-.231.472328 2.0434091.7118525 4.1337137.714 6.231-.0043806 1.0025331-.0641383 2.0040589-.179 3h-5.821c-2.7600532.0033061-4.9966939 2.2399468-5 5 .0015971.796138-.3139606 1.560128-.8769163 2.1230837s-1.3269457.8785134-2.1230837.8769163h-.952c-.367-.057-1.048-.751-1.048-3s.681-2.943 1.048-3c.3572656-.0085744.6828182-.2070963.8540254-.5207846s.1620584-.6948861-.024-1-.5207598-.4877898-.8780254-.4792154c-.114 0-2.59.056-2.952 4h-20.1c-.362-3.944-2.838-4-2.952-4-.5578519-.0023323-1.0149301.4422964-1.028 1-.0064536.2622918.0929682.5161359.2758399.7042756.1828718.1881397.4337908.2947285.6961601.2957244.366.049 1.056.739 1.056 3s-.69 2.953-1 3c-.5522847 0-1 .4477153-1 1s.4477153 1 1 1c.114 0 2.59-.056 2.952-4h20.1c.05025.690405.2085075 1.3686516.469 2.01-1.4976133.0550202-2.9166432.6841485-3.963 1.757-1.027069 1.0331807-1.5882955 2.4405808-1.554 3.897.093867 2.9710525 2.5274676 5.3320876 5.5 5.336 1.3770797.0087298 2.4912702 1.1229203 2.5 2.5-.0086122.1100179-.0249863.21929-.049.327-6.1199672 3.1445824-13.1713394 3.9676155-19.851 2.317zm21.821-3.444c-.3883249-2.1382361-2.2477952-3.6944542-4.421-3.7-1.8929051-.0034196-3.4417266-1.507989-3.5-3.4-.0171319-.914123.3393222-1.7956878.987-2.441.7153952-.7360372 1.6965924-1.1536676 2.723-1.159h3.29c1.3264893.0013285 2.5990309-.5250291 3.5370009-1.4629991s1.4643276-2.2105116 1.4629991-3.5370009c0-1.6568542 1.3431458-3 3-3h5.538c-1.4055135 7.7234729-5.9812971 14.5053667-12.617 18.7zm13.079-33.7c0 1.1045695-.8954305 2-2 2s-2-.8954305-2-2 .8954305-2 2-2 2 .8954305 2 2z"/><path id="Shape" d="m29 49c-1.6568542 0-3 1.3431458-3 3s1.3431458 3 3 3 3-1.3431458 3-3-1.3431458-3-3-3zm0 4c-.5522847 0-1-.4477153-1-1s.4477153-1 1-1 1 .4477153 1 1-.4477153 1-1 1z"/></g></g></g></svg>