<svg id="_x33_0" enable-background="new 0 0 64 64" height="512" viewBox="0 0 64 64" width="512" xmlns="http://www.w3.org/2000/svg"><g><g><g><path d="m32 10v4c-1.27.01-2.52.27-3.69.75-1.18.49-2.27 1.21-3.19 2.13l-1.12 1.12h-1c-.8 0-1.52.31-2.05.81l-.67-2.7c-.19-.74-.28-1.49-.28-2.26 0-2.21.79-4.35 2.21-6.02l.01-.01c1.82 1.3 5.52 2.18 9.78 2.18z" fill="#656d78"/></g><g><path d="m46 15c0 1.3-.39 2.58-1.11 3.66l-.89 1.34.44.89c.37.73.56 1.53.56 2.35 0 1.35-.51 2.59-1.36 3.53-.85.93-2.04 1.57-3.38 1.7l-4.2.42c.59-.34 1.12-.76 1.6-1.23 1.44-1.45 2.34-3.45 2.34-5.66v-4l-.05-.06c-1.86-2.48-4.77-3.94-7.87-3.94-.03 0-.05 0-.08 0v-4c4.7 0 8.71-1.07 10.28-2.58l1.53 2.29.27.45-3.08 1.84 2 4 2.21-.95c.27-.12.53-.25.78-.39.01.11.01.23.01.34z" fill="#b27946"/></g><g><path d="m45.99 14.66c-.25.14-.51.27-.78.39l-2.21.95-2-4 3.08-1.84.29-.18c1.03-.62 1.73-1.67 1.9-2.86l.58-4.1c.09-.59.59-1.02 1.18-1.02.56 0 1.05.4 1.16.95l.66 3.28c.1.51.15 1.03.15 1.55 0 1.58-.47 3.09-1.31 4.36-.68 1.03-1.6 1.9-2.7 2.52z" fill="#969faa"/></g><g><path d="m32 6v4c-4.26 0-7.96-.88-9.78-2.18-.78-.54-1.22-1.16-1.22-1.82 0-2.21 4.92-4 11-4z" fill="#e6e9ed"/></g><g><path d="m32 2c6.08 0 11 1.79 11 4 0 .5-.25.98-.72 1.42-1.57 1.51-5.58 2.58-10.28 2.58v-4z" fill="#e6e9ed"/></g><g><path d="m35 54h1 6v8h-10v-11c0 1.66 1.34 3 3 3z" fill="#ff826e"/></g><g><path d="m36 48v-1c0-1.66-1.34-3-3-3-.55 0-1 .45-1 1v-11l5 4 1.84-5.52 2.37.39.94.16c3.03.5 5.33 2.9 5.77 5.86.05.34.08.69.08 1.04v10.07c0 1.89-1.31 3.47-3.08 3.89-.29.07-.6.11-.92.11h-2-6z" fill="#ff826e"/></g><g><path d="m38.84 32.47v.01l-1.84 5.52-5-4 4-2z" fill="#fc6e51"/></g><g><path d="m28 47v1 6h-6-2c-2.21 0-4-1.79-4-4v-10.07c0-.31.02-.63.07-.93.39-3.01 2.71-5.46 5.78-5.97l1.7-.29 1.61-.26 1.84 5.52 5-4v11c0-.55-.45-1-1-1-1.66 0-3 1.34-3 3z" fill="#fcd770"/></g><g><path d="m32 51v11h-10v-7-1h6 1c1.66 0 3-1.34 3-3z" fill="#fcd770"/></g><g><path d="m32 34-5 4-1.84-5.52v-.01l2.84-.47z" fill="#ffc729"/></g><g><path d="m16 50v-10.07c0-.31.02-.63.07-.93.39-3.01 2.71-5.46 5.78-5.97l1.7-.29c-4.18-2.45-7.12-6.57-8.07-11.33l-.73-3.67c-.44-2.17-2.35-3.74-4.57-3.74-.94 0-1.82.31-2.53.85s-1.25 1.31-1.5 2.21l-3.74 13.47c-.27.97-.41 1.98-.41 3 0 1.37.39 2.68 1.08 3.8.7 1.12 1.7 2.05 2.92 2.67 0 1.24.28 2.44.81 3.52.52 1.07 1.27 2.03 2.22 2.79h.01c-.03.23-.04.46-.04.69 0 1.5.41 2.93 1.16 4.17.74 1.23 1.81 2.27 3.13 2.97.2.75.51 1.46.92 2.11.77 1.26 1.89 2.31 3.27 2.99l1.52.76.5-.34c1.56-1.04 2.5-2.79 2.5-4.66v-1h-2c-2.21 0-4-1.79-4-4z" fill="#e6e9ed"/></g><g><path d="m58.89 31.64c.79-1.1 1.85-2.02 3.11-2.64-1.99-3.32-3.56-6.88-4.68-10.59l-.77-2.57c-.33-1.09-1.33-1.84-2.47-1.84-1.21 0-2.26.85-2.52 2.04l-1.23 5.75c-.85 3.97-3.27 7.42-6.72 9.58l-2.4 1.5.94.16c3.03.5 5.33 2.9 5.77 5.86.05.34.08.69.08 1.04v10.07c0 1.89-1.31 3.47-3.08 3.89l4.08 5.11.92-3.66c.34-1.38.98-2.65 1.84-3.73.87-1.08 1.97-1.97 3.24-2.61l-.94-1.35.2-1.24c.24-1.39.79-2.67 1.6-3.77.82-1.1 1.88-2.01 3.14-2.64l-1.9-2.71.27-1.86c.19-1.39.73-2.69 1.52-3.79z" fill="#656d78"/></g><g><path d="m36 48v6h-1c-1.66 0-3-1.34-3-3v-6c0-.55.45-1 1-1 1.66 0 3 1.34 3 3z" fill="#f0d0b4"/></g><g><path d="m32 45v6c0 1.66-1.34 3-3 3h-1v-6-1c0-1.66 1.34-3 3-3 .55 0 1 .45 1 1z" fill="#f0d0b4"/></g><g><path d="m32 30 3.09-.62.91 2.62-4 2z" fill="#f0d0b4"/></g><g><path d="m32 30v4l-4-2 .91-2.62c.95.4 2 .62 3.09.62z" fill="#f0d0b4"/></g><g><path d="m39.95 17.94c-1.86-2.48-4.77-3.94-7.87-3.94-.03 0-.05 0-.08 0-1.27.01-2.52.27-3.69.75-1.18.49-2.27 1.21-3.19 2.13l-1.12 1.12v4c0 .68.08 1.33.24 1.96.62 2.46 2.37 4.46 4.67 5.42.95.4 2 .62 3.09.62l3.09-.62c.33-.14.66-.3.97-.49.59-.34 1.12-.76 1.6-1.23 1.44-1.45 2.34-3.45 2.34-5.66v-4z" fill="#f0d0b4"/></g><g><path d="m23 24c-.83 0-1.58-.34-2.12-.88s-.88-1.29-.88-2.12c0-.86.36-1.64.95-2.19.53-.5 1.25-.81 2.05-.81h1v4c0 .68.08 1.33.24 1.96l-.17.04z" fill="#f0d0b4"/></g></g><g><path d="m36.293 17.293-2.707 2.707 2.707 2.707 1.414-1.414-1.293-1.293 1.293-1.293z"/><circle cx="28" cy="20" r="1"/><path d="m62.447 29.895.966-.483-.556-.926c-1.948-3.247-3.488-6.732-4.575-10.358l-.774-2.578c-.449-1.502-1.858-2.55-3.425-2.55-1.675 0-3.146 1.189-3.498 2.827l-1.232 5.753c-.79 3.684-3.075 6.942-6.27 8.938l-2.082 1.302-4.252-.708-.425-1.222c.011-.006.021-.013.032-.019l4.009-.401c3.212-.323 5.635-3 5.635-6.229 0-.966-.229-1.934-.661-2.799l-.186-.371.569-.853c.796-1.195 1.222-2.577 1.262-4.007 2.474-1.628 4.016-4.394 4.016-7.428 0-.587-.058-1.175-.173-1.748l-.656-3.279c-.204-1.017-1.105-1.756-2.143-1.756-1.081 0-2.011.807-2.164 1.876l-.586 4.098c-.098.685-.425 1.3-.919 1.762l-.834-1.251c.298-.454.475-.946.475-1.485 0-3.283-6.037-5-12-5s-12 1.717-12 5c0 .735.316 1.387.853 1.964-1.199 1.721-1.853 3.778-1.853 5.89 0 .842.104 1.683.308 2.5l.55 2.201c-.529.678-.858 1.52-.858 2.445 0 2.206 1.794 4 4 4h.525c.743 2.091 2.23 3.832 4.151 4.889l-.425 1.222-3.479.58c-3.775-2.325-6.436-6.117-7.308-10.475l-.733-3.668c-.529-2.635-2.862-4.548-5.55-4.548-2.32 0-4.375 1.562-4.996 3.797l-3.74 13.463c-.295 1.065-.445 2.165-.445 3.268 0 2.937 1.539 5.58 4.033 7.06.153 2.373 1.214 4.563 2.983 6.155-.003.084-.016.169-.016.254 0 3.223 1.703 6.162 4.452 7.799.735 2.286 2.344 4.22 4.576 5.337l2.044 1.021.987-.658c.344-.229.652-.495.941-.777v3.281h22v-8h1c.165 0 .32-.033.481-.049l5 6.25 1.405-5.62c.619-2.474 2.281-4.546 4.562-5.687l1.037-.519-1.373-1.961.14-.839c.408-2.448 1.977-4.572 4.196-5.681l1.037-.519-2.337-3.338.21-1.469c.349-2.447 1.878-4.568 4.089-5.673zm-24.924 3.372-1.019 3.056-2.66-2.128 2.312-1.156zm-2.523 14.733v1 4c-1.103 0-2-.897-2-2v-6c1.103 0 2 .897 2 2zm-6 1v-1-1c0-1.103.897-2 2-2v6c0 1.103-.897 2-2 2zm-2-2h-4v-4.236l-1.105-2.211-1.789.895.894 1.788v4.35l-1.707 1.707 1.414 1.414 1.707-1.707h4.586v4h-7c-1.654 0-3-1.346-3-3v-10.07c0-2.945 2.108-5.434 5.014-5.918l2.465-.411 2.026 6.076 4.495-3.597v6.92c-2.206 0-4 1.794-4 4zm12-25c0 3.519-2.613 6.432-6 6.92v-2.01c1.176-.203 2.26-.756 3.121-1.617l.586-.586-1.414-1.414-.586.586c-.477.477-1.074.78-1.707.943v-9.769c2.32.247 4.487 1.417 6 3.291zm-4.233 9.498-1.767.884v-1.441c.504-.056.994-.158 1.47-.294zm8.783-10.161c.294.588.45 1.247.45 1.904 0 2.197-1.648 4.019-3.834 4.237l-1.126.113c1.223-1.537 1.96-3.478 1.96-5.591v-4l-.047-.396-.2-.267c-1.851-2.469-4.701-4.018-7.753-4.283v-2.073c3.539-.114 6.972-.834 9.037-2.124l.645.967-2.99 1.794 2.836 5.671 2.305-.988c-.153.639-.404 1.252-.774 1.807l-1.212 1.819zm3.709-14.08.585-4.098c.025-.18.329-.188.366-.01l.656 3.279c.089.445.134.9.134 1.355 0 2.769-1.644 5.262-4.189 6.353l-1.338.574-1.164-2.329 2.574-1.544c1.296-.778 2.163-2.084 2.376-3.58zm-5.259-1.257c0 1.127-3.551 2.796-9 2.981v-1.981h4v-2h-4v-1.981c5.449.185 9 1.854 9 2.981zm-11-2.981v1.981h-4v2h4v1.981c-5.449-.185-9-1.854-9-2.981s3.551-2.796 9-2.981zm-8 19.981c-1.103 0-2-.897-2-2s.897-2 2-2v3c0 .338.022.671.059 1zm.586-6h-.586c-.495 0-.964.102-1.402.267l-.35-1.398c-.165-.659-.248-1.336-.248-2.015 0-1.686.518-3.327 1.467-4.706 2.095 1.108 5.269 1.729 8.533 1.834v2.07c-2.489.244-4.798 1.332-6.59 3.124zm1.414 5v-3.586l.824-.824c1.413-1.413 3.223-2.282 5.176-2.518v9.75c-.633-.163-1.231-.466-1.707-.943l-.586-.586-1.414 1.414.586.586c.861.861 1.945 1.414 3.121 1.617v2.011c-3.387-.489-6-3.402-6-6.921zm6 8.941v1.441l-1.767-.883.296-.852c.477.136.967.238 1.471.294zm-3.157 2.099 2.312 1.156-2.66 2.128-1.019-3.056zm-17.843 13.957c0-.58.071-1.159.212-1.721l2.758-11.033-1.94-.485-2.619 10.475c-.905-1.21-1.411-2.683-1.411-4.236 0-.58.071-1.159.212-1.721l2.758-11.033-1.94-.485-2.759 11.033c-.038.154-.056.311-.087.467-1.368-1.167-2.184-2.871-2.184-4.73 0-.922.125-1.842.372-2.732l3.74-13.463c.382-1.374 1.644-2.333 3.069-2.333 1.738 0 3.247 1.237 3.587 2.941l.733 3.668c.842 4.209 3.175 7.943 6.503 10.575-3.137.803-5.446 3.399-5.911 6.569l-2.821 11.038c-.174.696-.261 1.413-.267 2.132-1.262-1.303-2.005-3.052-2.005-4.926zm8.949 11.835-.021.014-1.006-.503c-2.419-1.21-3.922-3.641-3.922-6.346 0-.58.071-1.159.21-1.716l.79-3.09v2.809c0 2.757 2.243 5 5 5h1c0 1.543-.767 2.976-2.051 3.832zm4.051-3.832h6c.732 0 1.409-.212 2-.556v6.556h-8zm18 6h-8v-6.556c.591.344 1.268.556 2 .556h6zm-4-8v-4h4.586l1.707 1.707 1.414-1.414-1.707-1.707v-4.35l.895-1.789-1.789-.895-1.106 2.212v4.236h-4c0-2.206-1.794-4-4-4v-6.92l4.495 3.596 2.026-6.076 2.465.411c2.906.485 5.014 2.974 5.014 5.919v10.07c0 1.654-1.346 3-3 3zm11.945 2.096-.426 1.703-2.003-2.503c1.479-.87 2.484-2.461 2.484-4.296v-7.828l4.552 6.503c-2.287 1.468-3.94 3.755-4.607 6.421zm3.874-25.669-1.639 1.146 6.375 9.107c-1.948 1.283-3.38 3.234-4.026 5.476l-4.657-6.652c-.498-2.785-2.432-5.09-5.081-6.07l.351-.219c3.651-2.281 6.263-6.005 7.166-10.215l1.232-5.752c.156-.724.805-1.248 1.543-1.248.691 0 1.312.462 1.51 1.124l.774 2.578c1.038 3.459 2.469 6.796 4.261 9.933-2.125 1.378-3.608 3.557-4.13 6.047z"/></g></g></svg>