<?xml version="1.0" encoding="iso-8859-1"?>
<!-- Generator: Adobe Illustrator 19.0.0, SVG Export Plug-In . SVG Version: 6.00 Build 0)  -->
<svg version="1.1" id="Capa_1" xmlns="http://www.w3.org/2000/svg" xmlns:xlink="http://www.w3.org/1999/xlink" x="0px" y="0px"
	 viewBox="0 0 512 512" style="enable-background:new 0 0 512 512;" xml:space="preserve">
<rect x="301.88" y="105.75" style="fill:#D1E5E3;" width="77.66" height="23.301"/>
<polygon style="fill:#5D5B72;" points="411.247,107.936 411.247,126.858 379.54,137.162 379.54,97.631 "/>
<path style="fill:#FF5F5F;" d="M367.349,463.026L334.53,241.424c-2.421-16.35-16.455-28.458-32.983-28.458h-34.3V160.79h-66v52.176
	h-34.299c-16.528,0-30.562,12.108-32.983,28.458l-32.819,221.601c-3.236,21.85,13.695,41.474,35.784,41.474h194.636
	C353.654,504.5,370.585,484.876,367.349,463.026z"/>
<path style="fill:#E24B4B;" d="M367.349,463.026L334.53,241.424c-2.421-16.35-16.455-28.458-32.983-28.458h-17.014
	c12.35,0,22.836,12.108,24.645,28.458L333.7,463.026c2.418,21.851-10.233,41.474-26.738,41.474h24.603
	C353.654,504.5,370.585,484.876,367.349,463.026z"/>
<circle style="fill:#E1EEF7;" cx="234.25" cy="368.94" r="86.66"/>
<polygon style="fill:#5D5B72;" points="301.885,94.003 301.885,140.788 278.852,140.788 278.852,160.79 189.632,160.79 
	189.632,74.001 278.852,74.001 278.852,94.003 "/>
<path style="fill:#FF5F5F;" d="M267.207,7.5h-65.931c-4.65,0-8.42,3.77-8.42,8.42l0,0c0,4.65,3.77,8.42,8.42,8.42h11.921
	l6.631,25.973h28.827l6.631-25.973h11.921c4.65,0,8.42-3.77,8.42-8.42l0,0C275.627,11.269,271.857,7.5,267.207,7.5z"/>
<path style="fill:#5D5B72;" d="M189.632,74.001v23.153h-34.704l-23.667,70.589c-3.391,10.112-14.342,15.566-24.454,12.167
	l-3.63-1.216l27.331-81.54l7.766-23.153H189.632z"/>
<path style="fill:#9393A3;" d="M234.247,408.547L234.247,408.547c-11.627,0-21.052-9.425-21.052-21.052V350.37
	c0-11.627,9.425-21.052,21.052-21.052l0,0c11.627,0,21.052,9.425,21.052,21.052v37.125
	C255.299,399.122,245.874,408.547,234.247,408.547z"/>
<path d="M413.565,100.803l-31.707-10.304c-2.286-0.742-4.784-0.347-6.727,1.065c-1.942,1.411-3.092,3.667-3.092,6.067v0.613h-39.876
	c-4.143,0-7.5,3.357-7.5,7.5s3.357,7.5,7.5,7.5h39.876v8.301h-62.655V94.003c0-4.143-3.357-7.5-7.5-7.5h-15.532V74.001
	c0-4.143-3.357-7.5-7.5-7.5h-37.11v-8.688h6.913c3.428,0,6.419-2.323,7.267-5.645l5.19-20.329h6.095
	c8.778,0,15.92-7.142,15.92-15.919c0-8.778-7.142-15.92-15.92-15.92h-65.931c-8.778,0-15.92,7.142-15.92,15.92
	c0,8.777,7.142,15.919,15.92,15.919h6.095l5.191,20.329c0.848,3.321,3.839,5.645,7.267,5.645h6.914v8.688h-37.11h-51.357
	c-3.223,0-6.086,2.06-7.11,5.115L96.065,176.311c-0.632,1.887-0.489,3.947,0.398,5.727c0.887,1.781,2.445,3.137,4.331,3.769
	l3.623,1.213c2.804,0.942,5.688,1.41,8.562,1.41c4.087,0,8.15-0.947,11.918-2.822c6.412-3.191,11.198-8.69,13.476-15.48
	l21.95-65.473h21.809v56.136c0,4.143,3.357,7.5,7.5,7.5h4.115v37.177h-26.8c-20.09,0-37.459,14.986-40.402,34.859l-32.819,221.6
	c-1.862,12.574,1.832,25.305,10.136,34.93C112.165,506.48,124.218,512,136.929,512h194.636c12.711,0,24.764-5.52,33.067-15.144
	c8.304-9.625,11.998-22.356,10.136-34.93l-32.819-221.601c-2.942-19.873-20.312-34.859-40.401-34.859h-26.8V168.29h4.105
	c4.143,0,7.5-3.357,7.5-7.5v-12.502h15.532c4.143,0,7.5-3.357,7.5-7.5v-4.242h62.655v0.616c0,2.4,1.149,4.656,3.092,6.067
	c1.298,0.943,2.844,1.433,4.409,1.433c0.777,0,1.56-0.121,2.317-0.367l31.707-10.304c3.09-1.004,5.182-3.884,5.182-7.133v-18.923
	C418.747,104.687,416.655,101.807,413.565,100.803z M220.464,22.483c-0.848-3.32-3.839-5.645-7.267-5.645h-11.921
	c-0.507,0-0.92-0.412-0.92-0.919c0-0.507,0.413-0.92,0.92-0.92h65.931c0.507,0,0.92,0.413,0.92,0.92c0,0.507-0.413,0.919-0.92,0.919
	h-11.921c-3.428,0-6.419,2.324-7.267,5.645l-5.19,20.329h-17.175L220.464,22.483z M154.928,89.654c-3.224,0-6.086,2.06-7.111,5.116
	l-23.666,70.588c-1.003,2.992-3.111,5.414-5.937,6.82c-1.693,0.843-3.541,1.253-5.359,1.242L143.67,81.5h38.463v8.153
	L154.928,89.654L154.928,89.654z M267.247,220.467h34.3c12.712,0,23.701,9.482,25.564,22.057l32.819,221.601
	c1.223,8.256-1.203,16.614-6.654,22.934c-5.452,6.318-13.365,9.942-21.711,9.942H136.929c-8.346,0-16.259-3.624-21.711-9.942
	c-5.451-6.319-7.877-14.678-6.654-22.934l32.819-221.601c1.862-12.574,12.853-22.057,25.564-22.057h28.3h6h35.512
	c4.143,0,7.5-3.357,7.5-7.5s-3.357-7.5-7.5-7.5h-28.012V168.29h51v44.677C259.747,217.109,263.104,220.467,267.247,220.467z
	 M294.385,133.288h-15.532c-4.143,0-7.5,3.357-7.5,7.5v12.502h-4.105h-66h-4.115V97.154V81.501h74.221v12.502
	c0,4.143,3.357,7.5,7.5,7.5h15.532L294.385,133.288L294.385,133.288z M403.747,121.409l-16.707,5.43v-18.884l16.707,5.43V121.409z"
	/>
<path d="M153.112,321.204c-0.15,0.207-0.29,0.424-0.421,0.65c-0.111,0.193-0.208,0.389-0.3,0.587
	c-7.826,13.725-12.303,29.595-12.303,46.493c0,51.922,42.241,94.163,94.163,94.163c34.55,0,64.807-18.708,81.191-46.522
	c0.126-0.181,0.258-0.357,0.37-0.551c0.132-0.229,0.25-0.463,0.356-0.7c7.789-13.701,12.245-29.534,12.245-46.39
	c0-51.922-42.241-94.163-94.162-94.163C199.738,274.771,169.507,293.439,153.112,321.204z M234.251,448.098
	c-43.65,0-79.163-35.513-79.163-79.163c0-11.732,2.585-22.864,7.184-32.889l43.425,25.07v0.319h-13.45c-4.143,0-7.5,3.357-7.5,7.5
	s3.357,7.5,7.5,7.5h13.45v6.685h-0.309c-10.804,0-19.593,8.789-19.593,19.593v11.093c0,4.143,3.357,7.5,7.5,7.5s7.5-3.357,7.5-7.5
	v-11.093c0-2.532,2.061-4.593,4.593-4.593h2.349c1.417,3.538,3.545,6.791,6.323,9.576c5.398,5.384,12.567,8.35,20.187,8.35
	c4.547,0,9.072-1.094,13.087-3.164c3.682-1.897,5.128-6.421,3.23-10.103c-1.898-3.684-6.425-5.127-10.103-3.229
	c-1.926,0.992-4.017,1.496-6.214,1.496c-3.619,0-7.026-1.41-9.58-3.957c-2.559-2.566-3.97-5.973-3.97-9.593v-17.72l78.008,45.034
	C284.338,434.937,260.81,448.098,234.251,448.098z M313.413,368.935c0,11.734-2.586,22.87-7.187,32.896l-85.529-49.376v-2.08
	c0-7.478,6.078-13.561,13.55-13.561c3.62,0,7.024,1.411,9.586,3.974c2.066,2.066,3.387,4.682,3.816,7.565
	c0.549,3.674,3.703,6.393,7.418,6.393h8.04c10.802,0,19.59-8.788,19.59-19.59v-11.091c0-4.143-3.357-7.5-7.5-7.5s-7.5,3.357-7.5,7.5
	v11.091c0,2.531-2.059,4.59-4.59,4.59h-2.346c-1.42-3.556-3.553-6.795-6.321-9.564c-5.396-5.395-12.567-8.366-20.193-8.366
	c-11.988,0-22.267,7.434-26.491,17.932h-2.367c-2.532,0-4.593-2.061-4.593-4.593V324.06c0-4.143-3.357-7.5-7.5-7.5
	s-7.5,3.357-7.5,7.5v8.246l-16.004-9.239c14.367-20.132,37.897-33.295,64.459-33.295
	C277.901,289.771,313.413,325.284,313.413,368.935z"/>
<path d="M276.247,361.435h-5.226c-4.143,0-7.5,3.357-7.5,7.5s3.357,7.5,7.5,7.5h5.226c4.143,0,7.5-3.357,7.5-7.5
	S280.39,361.435,276.247,361.435z"/>
<path d="M275.197,402.972c-4.143,0-7.5,3.358-7.5,7.5v3.333c0,4.143,3.357,7.5,7.5,7.5s7.5-3.357,7.5-7.5v-3.333
	C282.697,406.329,279.34,402.972,275.197,402.972z"/>
<g>
</g>
<g>
</g>
<g>
</g>
<g>
</g>
<g>
</g>
<g>
</g>
<g>
</g>
<g>
</g>
<g>
</g>
<g>
</g>
<g>
</g>
<g>
</g>
<g>
</g>
<g>
</g>
<g>
</g>
</svg>
