<?xml version="1.0" encoding="iso-8859-1"?>
<!-- Generator: Adobe Illustrator 19.0.0, SVG Export Plug-In . SVG Version: 6.00 Build 0)  -->
<svg xmlns="http://www.w3.org/2000/svg" xmlns:xlink="http://www.w3.org/1999/xlink" version="1.1" id="Layer_1" x="0px" y="0px" viewBox="0 0 512 512" style="enable-background:new 0 0 512 512;" xml:space="preserve" width="512" height="512">
<g id="XMLID_1030_">
	<path id="XMLID_1645_" style="fill:#72D8FF;" d="M64.342,309.932C64.342,416.008,150.151,502,256,502   s191.658-85.992,191.658-192.068c0-45.983-16.133-88.186-43.025-121.252h0.013L272.04,17.566   c-7.794-10.057-22.971-10.093-30.812-0.072L108.063,187.68l0.111,0C80.794,220.892,64.342,263.486,64.342,309.932z"/>
	<g id="XMLID_1041_">
		<path id="XMLID_493_" d="M256,512c-111.194,0-201.658-90.647-201.658-202.068c0-46.391,16.05-91.619,45.219-127.517    c0.191-0.308,0.4-0.608,0.626-0.897l26.049-33.291c3.404-4.35,9.687-5.117,14.038-1.713c4.349,3.403,5.116,9.688,1.713,14.038    l-25.191,32.196c-0.265,0.45-0.567,0.883-0.906,1.295c-26.792,32.499-41.547,73.656-41.547,115.891    C74.343,410.325,155.834,492,256,492s181.658-81.676,181.658-182.068c0-41.784-14.484-82.605-40.783-114.942    c-0.146-0.181-0.286-0.365-0.419-0.553L264.136,23.691c-1.813-2.338-4.549-3.684-7.507-3.691c-0.008,0-0.016,0-0.023,0    c-2.95,0-5.683,1.332-7.502,3.656l-57.728,73.777c-3.403,4.349-9.687,5.116-14.038,1.713c-4.35-3.403-5.116-9.688-1.713-14.038    l57.728-73.777C238.989,4.128,247.461,0,256.604,0c0.024,0,0.046,0,0.071,0c9.17,0.021,17.652,4.191,23.27,11.439l132.606,171.115    c0.047,0.061,0.093,0.121,0.138,0.183c29.001,35.833,44.969,80.986,44.969,127.195C457.658,421.353,367.195,512,256,512z"/>
	</g>
	<g id="XMLID_1044_">
		<path id="XMLID_492_" d="M295.662,440.677c-4.199,0-8.109-2.666-9.496-6.872c-1.729-5.245,1.121-10.898,6.366-12.628    c48.017-15.832,80.279-60.538,80.279-111.245c0-5.522,4.477-10,10-10s10,4.478,10,10c0,59.359-37.782,111.698-94.016,130.239    C297.756,440.514,296.7,440.677,295.662,440.677z"/>
	</g>
	<g id="XMLID_1045_">
		<path id="XMLID_491_" d="M256.094,447.014c-5.523,0-10.047-4.478-10.047-10s4.43-10,9.953-10h0.094c5.523,0,10,4.478,10,10    S261.617,447.014,256.094,447.014z"/>
	</g>
	<g id="XMLID_1046_">
		<path id="XMLID_490_" d="M158.93,132.946c-2.63,0-5.21-1.07-7.07-2.93c-1.86-1.86-2.93-4.44-2.93-7.07s1.07-5.21,2.93-7.07    s4.44-2.93,7.07-2.93c2.63,0,5.21,1.07,7.07,2.93c1.86,1.86,2.93,4.44,2.93,7.07s-1.07,5.21-2.93,7.07    C164.14,131.876,161.56,132.946,158.93,132.946z"/>
	</g>
</g>















</svg>
